<svg width="16" height="16" viewBox="0 0 16 16" fill="none" xmlns="http://www.w3.org/2000/svg">
<path d="M12.9998 5.326L8.00179 10.198L3.00379 5.326C2.91449 5.23877 2.79461 5.18993 2.66979 5.18993C2.54496 5.18993 2.42508 5.23877 2.33579 5.326C2.29255 5.36836 2.2582 5.41893 2.23475 5.47474C2.2113 5.53054 2.19922 5.59047 2.19922 5.651C2.19922 5.71153 2.2113 5.77146 2.23475 5.82726C2.2582 5.88307 2.29255 5.93364 2.33579 5.976L7.65279 11.16C7.74616 11.251 7.87139 11.302 8.00179 11.302C8.13218 11.302 8.25741 11.251 8.35079 11.16L13.6678 5.977C13.7113 5.9346 13.7459 5.88391 13.7696 5.82792C13.7932 5.77193 13.8054 5.71177 13.8054 5.651C13.8054 5.59023 13.7932 5.53007 13.7696 5.47408C13.7459 5.41809 13.7113 5.3674 13.6678 5.325C13.5785 5.23777 13.4586 5.18893 13.3338 5.18893C13.209 5.18893 13.0891 5.23777 12.9998 5.325V5.326Z" fill="#6B6B6B"/>
</svg>
