<svg width="20" height="20" viewBox="0 0 20 20" fill="none" xmlns="http://www.w3.org/2000/svg">
<path d="M6.04883 12.209C6.1026 12.2716 6.15193 12.3651 6.21094 12.4824V12.4834L6.26172 12.585L6.33203 12.7217H11.6396V13.3047H5.9834L5.83008 13.0117L5.73438 12.8301L5.53613 12.8887L5.3418 12.9473L5.18164 12.9951L5.16504 13.1611C5.16079 13.2027 5.15723 13.2487 5.15527 13.2979V13.2988C5.14756 13.5037 5.16306 13.7401 5.19531 13.9756C5.22825 14.2239 5.28149 14.4694 5.35449 14.709L5.40234 14.8643L5.56445 14.8838C5.89827 14.9239 6.20557 15.0854 6.42871 15.3369C6.65195 15.5886 6.77554 15.9136 6.77539 16.25L6.76855 16.3906C6.69832 17.0844 6.11375 17.625 5.4043 17.625L5.26855 17.6182C4.95449 17.5865 4.65952 17.447 4.43457 17.2217C4.17737 16.9639 4.03284 16.6142 4.0332 16.25L4.04395 16.0771C4.0655 15.9056 4.11942 15.7393 4.20312 15.5869C4.31475 15.3837 4.47609 15.2121 4.67188 15.0879L4.83496 14.9834L4.77539 14.7998L4.77344 14.793C4.70479 14.5514 4.65393 14.3046 4.62109 14.0557L4.62012 14.0547L4.59277 13.8154C4.58554 13.7355 4.58065 13.6554 4.57715 13.5752L4.56152 13.2139L4.22949 13.3564C3.54649 13.6487 2.90688 14.0033 2.36719 14.3975C1.30778 15.172 0.831136 15.9473 0.831055 16.5586V18.667H11.6396V19.25H0.25V16.5586C0.250078 15.6591 0.922504 14.7316 2.02441 13.9258C3.11455 13.1286 4.56868 12.4945 6 12.168L6.00195 12.167C6.00727 12.1695 6.02352 12.1796 6.04883 12.209ZM5.4043 15.4502C4.97513 15.4502 4.61328 15.8007 4.61328 16.25C4.61328 16.7002 4.976 17.0498 5.4043 17.0498C5.83342 17.0498 6.19434 16.6993 6.19434 16.25C6.19434 15.7999 5.83256 15.4502 5.4043 15.4502ZM9.72754 0.25C12.5735 0.25 14.8818 2.5629 14.8818 5.41699C14.8817 8.27093 12.5734 10.583 9.72754 10.583C6.88179 10.5829 4.57342 8.27085 4.57324 5.41699C4.57324 2.56297 6.88115 0.250136 9.72754 0.25ZM9.72754 0.833008C7.20083 0.833144 5.1543 2.88647 5.1543 5.41699C5.15447 7.94738 7.2015 9.99986 9.72754 10C12.2537 10 14.3006 7.94743 14.3008 5.41699C14.3008 2.88641 12.2538 0.833008 9.72754 0.833008Z" fill="white" stroke="white" stroke-width="0.5"/>
<path d="M17.1699 15.6064C17.1937 15.6077 17.2168 15.6138 17.2383 15.624C17.2599 15.6344 17.279 15.6492 17.2949 15.667H17.2959C17.312 15.6849 17.324 15.7059 17.332 15.7285C17.3401 15.7512 17.3441 15.7758 17.3428 15.7998C17.3414 15.8237 17.3355 15.8475 17.3252 15.8691C17.3149 15.8907 17.3 15.9098 17.2822 15.9258L17.2812 15.9268L15.9346 17.1426C15.8995 17.1741 15.8538 17.1911 15.8066 17.1904C15.783 17.19 15.7598 17.1846 15.7383 17.1758L15.6797 17.1377L15.1426 16.623L15.1016 16.5645C15.0919 16.5425 15.0865 16.5186 15.0859 16.4941C15.0854 16.4699 15.09 16.446 15.0986 16.4238L15.1367 16.3633C15.1532 16.346 15.1734 16.3319 15.1953 16.3223C15.2171 16.3127 15.2408 16.3081 15.2646 16.3076C15.2883 16.3071 15.3119 16.3108 15.334 16.3193C15.3562 16.328 15.3773 16.3409 15.3945 16.3574L15.6455 16.5986L15.8135 16.7598L15.9854 16.6035L17.0381 15.6533C17.0558 15.6373 17.0771 15.6242 17.0996 15.6162C17.1221 15.6083 17.1462 15.6052 17.1699 15.6064ZM17.1689 13.3584C17.1928 13.3597 17.2167 13.3657 17.2383 13.376L17.2949 13.4189C17.311 13.4368 17.324 13.4579 17.332 13.4805C17.3401 13.5032 17.3431 13.5277 17.3418 13.5518C17.3405 13.5757 17.3345 13.5994 17.3242 13.6211C17.3139 13.6427 17.3 13.6627 17.2822 13.6787H17.2812L15.9346 14.8936C15.8996 14.9252 15.8538 14.942 15.8066 14.9414C15.7594 14.9407 15.7138 14.9223 15.6797 14.8896L15.1426 14.375V14.374C15.1253 14.3574 15.1112 14.3374 15.1016 14.3154C15.0919 14.2935 15.0865 14.27 15.0859 14.2461C15.0854 14.2221 15.09 14.1982 15.0986 14.1758C15.1073 14.1534 15.1201 14.1326 15.1367 14.1152C15.1532 14.098 15.1734 14.0838 15.1953 14.0742C15.2172 14.0646 15.2408 14.0591 15.2646 14.0586C15.2884 14.0581 15.3119 14.0627 15.334 14.0713L15.3945 14.1094L15.6455 14.3496L15.8135 14.5098L15.9854 14.3545L17.0381 13.4053C17.0557 13.3894 17.0763 13.3771 17.0986 13.3691C17.121 13.3612 17.1452 13.3572 17.1689 13.3584Z" fill="white" stroke="white" stroke-width="0.5"/>
<path fill-rule="evenodd" clip-rule="evenodd" d="M17.9678 10.8332C17.9711 10.7602 17.9595 10.6873 17.9338 10.6188C17.9081 10.5504 17.8688 10.4879 17.8183 10.435C17.7678 10.3822 17.7071 10.3402 17.6399 10.3114C17.5726 10.2827 17.5003 10.2679 17.4272 10.2679C17.3541 10.2679 17.2818 10.2827 17.2145 10.3114C17.1473 10.3402 17.0866 10.3822 17.0361 10.435C16.9856 10.4879 16.9463 10.5504 16.9206 10.6188C16.8949 10.6873 16.8834 10.7602 16.8866 10.8332V10.9632H15.6706V10.8332C15.6746 10.7598 15.6636 10.6863 15.6383 10.6172C15.613 10.5482 15.5738 10.485 15.5232 10.4316C15.4727 10.3782 15.4117 10.3356 15.3442 10.3065C15.2766 10.2774 15.2038 10.2625 15.1303 10.2625C15.0567 10.2625 14.9839 10.2774 14.9164 10.3065C14.8488 10.3356 14.7879 10.3782 14.7373 10.4316C14.6867 10.485 14.6476 10.5482 14.6223 10.6172C14.5969 10.6863 14.5859 10.7598 14.59 10.8332V10.9632H13.9817C13.4221 10.9632 12.9688 11.4177 12.9688 11.9788V18.4843C12.9688 19.0449 13.4221 19.4999 13.9817 19.4999H18.4851C19.0452 19.4999 19.4985 19.0449 19.4985 18.4843V11.9788C19.4988 11.7099 19.3923 11.4518 19.2023 11.2613C19.0124 11.0709 18.7546 10.9636 18.4856 10.9632H17.9673L17.9678 10.8332ZM14.0494 18.4166V12.0466H18.4179V18.4166H14.0494Z" fill="white"/>
</svg>
