<svg width="26" height="26" viewBox="0 0 26 26" fill="none" xmlns="http://www.w3.org/2000/svg">
<path d="M19.3628 25.1249H6.51225L4.84175 17.5752C4.80506 17.4115 4.80208 17.2421 4.833 17.0773C4.86392 16.9125 4.92808 16.7557 5.02158 16.6164C5.10639 16.4861 5.2218 16.3784 5.35776 16.3029C5.49371 16.2274 5.64609 16.1862 5.80158 16.1831H20.0734C20.2289 16.1862 20.3813 16.2274 20.5172 16.3029C20.6532 16.3784 20.7686 16.4861 20.8534 16.6164C20.9469 16.7557 21.0111 16.9125 21.042 17.0773C21.0729 17.2421 21.0699 17.4115 21.0333 17.5752L19.3628 25.1249ZM0.75 25.1249H25.125Z" fill="white"/>
<path d="M0.75 25.1249H25.125M19.3628 25.1249H6.51225L4.84175 17.5752C4.80506 17.4115 4.80208 17.2421 4.833 17.0773C4.86392 16.9125 4.92808 16.7557 5.02158 16.6164C5.10639 16.4861 5.2218 16.3784 5.35776 16.3029C5.49371 16.2274 5.64609 16.1862 5.80158 16.1831H20.0734C20.2289 16.1862 20.3813 16.2274 20.5172 16.3029C20.6532 16.3784 20.7686 16.4861 20.8534 16.6164C20.9469 16.7557 21.0111 16.9125 21.042 17.0773C21.0729 17.2421 21.0699 17.4115 21.0333 17.5752L19.3628 25.1249Z" stroke="white" stroke-width="1.5" stroke-linecap="round" stroke-linejoin="round"/>
<path d="M11.3122 20.2501C11.3122 20.681 11.4834 21.0944 11.7881 21.3991C12.0929 21.7038 12.5062 21.8751 12.9372 21.8751C13.3682 21.8751 13.7815 21.7038 14.0862 21.3991C14.391 21.0944 14.5622 20.681 14.5622 20.2501C14.5622 19.8191 14.391 19.4058 14.0862 19.101C13.7815 18.7963 13.3682 18.6251 12.9372 18.6251C12.5062 18.6251 12.0929 18.7963 11.7881 19.101C11.4834 19.4058 11.3122 19.8191 11.3122 20.2501ZM9.08594 2.94922C9.77804 3.66691 10.6077 4.23777 11.5253 4.62772C12.4429 5.01766 13.4297 5.21869 14.4268 5.2188C15.4375 5.2188 16.4374 5.01297 17.3659 4.6143" fill="white"/>
<path d="M9.08594 2.94922C9.77804 3.66691 10.6077 4.23777 11.5253 4.62772C12.4429 5.01766 13.4297 5.21869 14.4268 5.2188C15.4375 5.2188 16.4374 5.01297 17.3659 4.6143M11.3122 20.2501C11.3122 20.681 11.4834 21.0944 11.7881 21.3991C12.0929 21.7038 12.5062 21.8751 12.9372 21.8751C13.3682 21.8751 13.7815 21.7038 14.0862 21.3991C14.391 21.0944 14.5622 20.681 14.5622 20.2501C14.5622 19.8191 14.391 19.4058 14.0862 19.101C13.7815 18.7963 13.3682 18.6251 12.9372 18.6251C12.5062 18.6251 12.0929 18.7963 11.7881 19.101C11.4834 19.4058 11.3122 19.8191 11.3122 20.2501Z" stroke="white" stroke-width="1.5" stroke-linecap="round" stroke-linejoin="round"/>
<path d="M8.46745 5.21875C8.46745 6.40394 8.93826 7.54058 9.77631 8.37863C10.6144 9.21669 11.751 9.6875 12.9362 9.6875C14.1214 9.6875 15.258 9.21669 16.0961 8.37863C16.9341 7.54058 17.4049 6.40394 17.4049 5.21875C17.4049 4.03356 16.9341 2.89692 16.0961 2.05887C15.258 1.22081 14.1214 0.75 12.9362 0.75C11.751 0.75 10.6144 1.22081 9.77631 2.05887C8.93826 2.89692 8.46745 4.03356 8.46745 5.21875ZM18.3529 13.75C17.6743 12.9828 16.8406 12.3685 15.9067 11.9478C14.9729 11.527 13.9604 11.3094 12.9362 11.3094C11.912 11.3094 10.8995 11.527 9.96565 11.9478C9.03185 12.3685 8.19807 12.9828 7.51953 13.75" fill="white"/>
<path d="M18.3529 13.75C17.6743 12.9828 16.8406 12.3685 15.9067 11.9478C14.9729 11.527 13.9604 11.3094 12.9362 11.3094C11.912 11.3094 10.8995 11.527 9.96565 11.9478C9.03185 12.3685 8.19807 12.9828 7.51953 13.75M8.46745 5.21875C8.46745 6.40394 8.93826 7.54058 9.77631 8.37863C10.6144 9.21669 11.751 9.6875 12.9362 9.6875C14.1214 9.6875 15.258 9.21669 16.0961 8.37863C16.9341 7.54058 17.4049 6.40394 17.4049 5.21875C17.4049 4.03356 16.9341 2.89692 16.0961 2.05887C15.258 1.22081 14.1214 0.75 12.9362 0.75C11.751 0.75 10.6144 1.22081 9.77631 2.05887C8.93826 2.89692 8.46745 4.03356 8.46745 5.21875Z" stroke="white" stroke-width="1.5" stroke-linecap="round" stroke-linejoin="round"/>
</svg>
