<svg width="20" height="24" viewBox="0 0 20 24" fill="none" xmlns="http://www.w3.org/2000/svg">
<mask id="path-1-inside-1_766_165" fill="white">
<path fill-rule="evenodd" clip-rule="evenodd" d="M10.3921 23.0294L10.3802 23.0316L10.3033 23.0695L10.2816 23.0738L10.2664 23.0695L10.1895 23.0316C10.178 23.0279 10.1693 23.0298 10.1635 23.037L10.1592 23.0478L10.1408 23.5115L10.1462 23.5331L10.157 23.5472L10.2697 23.6274L10.2859 23.6317L10.2989 23.6274L10.4116 23.5472L10.4246 23.5299L10.4289 23.5115L10.4105 23.0489C10.4076 23.0373 10.4015 23.0308 10.3921 23.0294ZM10.6792 22.907L10.6651 22.9091L10.4647 23.0099L10.4539 23.0207L10.4506 23.0326L10.4701 23.4985L10.4755 23.5115L10.4842 23.5191L10.7019 23.6198C10.7157 23.6234 10.7261 23.6205 10.7334 23.6111L10.7377 23.596L10.7009 22.9308C10.6973 22.9178 10.69 22.9099 10.6792 22.907ZM9.90461 22.9091C9.89984 22.9062 9.89413 22.9053 9.88868 22.9065C9.88324 22.9077 9.87846 22.911 9.87536 22.9156L9.86886 22.9308L9.83203 23.596C9.83275 23.609 9.83889 23.6176 9.85045 23.622L9.8667 23.6198L10.0844 23.5191L10.0953 23.5104L10.0996 23.4985L10.118 23.0326L10.1148 23.0196L10.1039 23.0088L9.90461 22.9091Z"/>
</mask>
<path fill-rule="evenodd" clip-rule="evenodd" d="M10.3921 23.0294L10.3802 23.0316L10.3033 23.0695L10.2816 23.0738L10.2664 23.0695L10.1895 23.0316C10.178 23.0279 10.1693 23.0298 10.1635 23.037L10.1592 23.0478L10.1408 23.5115L10.1462 23.5331L10.157 23.5472L10.2697 23.6274L10.2859 23.6317L10.2989 23.6274L10.4116 23.5472L10.4246 23.5299L10.4289 23.5115L10.4105 23.0489C10.4076 23.0373 10.4015 23.0308 10.3921 23.0294ZM10.6792 22.907L10.6651 22.9091L10.4647 23.0099L10.4539 23.0207L10.4506 23.0326L10.4701 23.4985L10.4755 23.5115L10.4842 23.5191L10.7019 23.6198C10.7157 23.6234 10.7261 23.6205 10.7334 23.6111L10.7377 23.596L10.7009 22.9308C10.6973 22.9178 10.69 22.9099 10.6792 22.907ZM9.90461 22.9091C9.89984 22.9062 9.89413 22.9053 9.88868 22.9065C9.88324 22.9077 9.87846 22.911 9.87536 22.9156L9.86886 22.9308L9.83203 23.596C9.83275 23.609 9.83889 23.6176 9.85045 23.622L9.8667 23.6198L10.0844 23.5191L10.0953 23.5104L10.0996 23.4985L10.118 23.0326L10.1148 23.0196L10.1039 23.0088L9.90461 22.9091Z" fill="white"/>
<path d="M10.3921 23.0294L10.5442 22.041L10.3783 22.0155L10.2132 22.0455L10.3921 23.0294ZM10.3802 23.0316L10.2013 22.0477L10.0636 22.0727L9.93805 22.1346L10.3802 23.0316ZM10.3033 23.0695L10.4994 24.0501L10.6279 24.0244L10.7454 23.9664L10.3033 23.0695ZM10.2816 23.0738L10.0069 24.0353L10.24 24.1019L10.4777 24.0544L10.2816 23.0738ZM10.2664 23.0695L9.8243 23.9664L9.90511 24.0063L9.99174 24.031L10.2664 23.0695ZM10.1895 23.0316L10.6317 22.1346L10.562 22.1003L10.4878 22.0771L10.1895 23.0316ZM10.1635 23.037L9.38266 22.4123L9.29008 22.528L9.23504 22.6656L10.1635 23.037ZM10.1592 23.0478L9.23071 22.6764L9.16681 22.8362L9.15999 23.0081L10.1592 23.0478ZM10.1408 23.5115L9.14157 23.4718L9.13588 23.615L9.17064 23.754L10.1408 23.5115ZM10.1462 23.5331L9.17606 23.7757L9.22657 23.9778L9.35357 24.1428L10.1462 23.5331ZM10.157 23.5472L9.3644 24.1569L9.45552 24.2754L9.57728 24.362L10.157 23.5472ZM10.2697 23.6274L9.68994 24.4422L9.8373 24.547L10.0121 24.5936L10.2697 23.6274ZM10.2859 23.6317L10.0283 24.598L10.3179 24.6752L10.6022 24.5804L10.2859 23.6317ZM10.2989 23.6274L10.6152 24.5761L10.7569 24.5288L10.8787 24.4422L10.2989 23.6274ZM10.4116 23.5472L10.9914 24.362L11.1182 24.2718L11.2116 24.1472L10.4116 23.5472ZM10.4246 23.5299L11.2246 24.1299L11.3501 23.9625L11.398 23.7589L10.4246 23.5299ZM10.4289 23.5115L11.4024 23.7405L11.4336 23.6079L11.4282 23.4717L10.4289 23.5115ZM10.4105 23.0489L11.4097 23.0091L11.4056 22.9062L11.3807 22.8064L10.4105 23.0489ZM10.6792 22.907L10.9369 21.9407L10.7344 21.8867L10.5272 21.9186L10.6792 22.907ZM10.6651 22.9091L10.5131 21.9208L10.3571 21.9448L10.216 22.0157L10.6651 22.9091ZM10.4647 23.0099L10.0156 22.1164L9.87155 22.1888L9.75759 22.3028L10.4647 23.0099ZM10.4539 23.0207L9.74676 22.3136L9.55896 22.5014L9.48909 22.7577L10.4539 23.0207ZM10.4506 23.0326L9.48584 22.7696L9.445 22.9194L9.45149 23.0745L10.4506 23.0326ZM10.4701 23.4985L9.47099 23.5403L9.47845 23.7185L9.54705 23.8831L10.4701 23.4985ZM10.4755 23.5115L9.55247 23.8961L9.64196 24.1109L9.81705 24.2641L10.4755 23.5115ZM10.4842 23.5191L9.82571 24.2717L9.93386 24.3663L10.0643 24.4266L10.4842 23.5191ZM10.7019 23.6198L10.282 24.5274L10.3621 24.5644L10.4475 24.5869L10.7019 23.6198ZM10.7334 23.6111L11.526 24.2209L11.6424 24.0695L11.6949 23.8858L10.7334 23.6111ZM10.7377 23.596L11.6992 23.8707L11.7455 23.7088L11.7362 23.5407L10.7377 23.596ZM10.7009 22.9308L11.6993 22.8755L11.6934 22.7675L11.6644 22.6632L10.7009 22.9308ZM9.90461 22.9091L9.38633 23.7643L9.42107 23.7854L9.4574 23.8036L9.90461 22.9091ZM9.87536 22.9156L9.04365 22.3604L8.99252 22.437L8.95623 22.5217L9.87536 22.9156ZM9.86886 22.9308L8.94973 22.5369L8.88016 22.6992L8.87039 22.8755L9.86886 22.9308ZM9.83203 23.596L8.83356 23.5407L8.83049 23.5961L8.83357 23.6514L9.83203 23.596ZM9.85045 23.622L9.49932 24.5583L9.73412 24.6464L9.98267 24.6132L9.85045 23.622ZM9.8667 23.6198L9.99892 24.611L10.1491 24.591L10.2866 24.5274L9.8667 23.6198ZM10.0844 23.5191L10.5044 24.4266L10.6144 24.3757L10.7091 24.3L10.0844 23.5191ZM10.0953 23.5104L10.7199 24.2913L10.9392 24.1159L11.0351 23.8521L10.0953 23.5104ZM10.0996 23.4985L11.0394 23.8402L11.0927 23.6937L11.0988 23.538L10.0996 23.4985ZM10.118 23.0326L11.1173 23.0721L11.1229 22.929L11.0882 22.7901L10.118 23.0326ZM10.1148 23.0196L11.0849 22.7771L11.0177 22.5084L10.8219 22.3125L10.1148 23.0196ZM10.1039 23.0088L10.8111 22.3017L10.6963 22.187L10.5512 22.1144L10.1039 23.0088ZM10.3921 23.0294L10.2132 22.0455L10.2013 22.0477L10.3802 23.0316L10.5591 24.0154L10.5711 24.0133L10.3921 23.0294ZM10.3802 23.0316L9.93805 22.1346L9.86113 22.1725L10.3033 23.0695L10.7454 23.9664L10.8223 23.9285L10.3802 23.0316ZM10.3033 23.0695L10.1072 22.0889L10.0855 22.0932L10.2816 23.0738L10.4777 24.0544L10.4994 24.0501L10.3033 23.0695ZM10.2816 23.0738L10.5563 22.1123L10.5412 22.1079L10.2664 23.0695L9.99174 24.031L10.0069 24.0353L10.2816 23.0738ZM10.2664 23.0695L10.7086 22.1725L10.6317 22.1346L10.1895 23.0316L9.74738 23.9285L9.8243 23.9664L10.2664 23.0695ZM10.1895 23.0316L10.4878 22.0771C10.3766 22.0423 10.1917 22.0051 9.97046 22.0512C9.72767 22.1018 9.52379 22.2359 9.38266 22.4123L10.1635 23.037L10.9444 23.6617C10.809 23.8309 10.6124 23.9604 10.3783 24.0092C10.1657 24.0535 9.99095 24.0172 9.89126 23.986L10.1895 23.0316ZM10.1635 23.037L9.23504 22.6656L9.23071 22.6764L10.1592 23.0478L11.0877 23.4192L11.092 23.4083L10.1635 23.037ZM10.1592 23.0478L9.15999 23.0081L9.14157 23.4718L10.1408 23.5115L11.14 23.5512L11.1584 23.0875L10.1592 23.0478ZM10.1408 23.5115L9.17064 23.754L9.17606 23.7757L10.1462 23.5331L11.1163 23.2906L11.1109 23.2689L10.1408 23.5115ZM10.1462 23.5331L9.35357 24.1428L9.3644 24.1569L10.157 23.5472L10.9497 22.9375L10.9388 22.9234L10.1462 23.5331ZM10.157 23.5472L9.57728 24.362L9.68994 24.4422L10.2697 23.6274L10.8495 22.8126L10.7368 22.7324L10.157 23.5472ZM10.2697 23.6274L10.0121 24.5936L10.0283 24.598L10.2859 23.6317L10.5436 22.6655L10.5273 22.6612L10.2697 23.6274ZM10.2859 23.6317L10.6022 24.5804L10.6152 24.5761L10.2989 23.6274L9.98274 22.6787L9.96974 22.683L10.2859 23.6317ZM10.2989 23.6274L10.8787 24.4422L10.9914 24.362L10.4116 23.5472L9.83186 22.7324L9.7192 22.8126L10.2989 23.6274ZM10.4116 23.5472L11.2116 24.1472L11.2246 24.1299L10.4246 23.5299L9.6246 22.9299L9.6116 22.9472L10.4116 23.5472ZM10.4246 23.5299L11.398 23.7589L11.4024 23.7405L10.4289 23.5115L9.45553 23.2825L9.45119 23.3009L10.4246 23.5299ZM10.4289 23.5115L11.4282 23.4717L11.4097 23.0091L10.4105 23.0489L9.41132 23.0887L9.42974 23.5513L10.4289 23.5115ZM10.4105 23.0489L11.3807 22.8064C11.351 22.6875 11.2844 22.5114 11.1308 22.3487C10.965 22.1732 10.754 22.0733 10.5442 22.041L10.3921 23.0294L10.2401 24.0178C10.0396 23.9869 9.83634 23.891 9.67673 23.722C9.52927 23.5658 9.46721 23.3987 9.44039 23.2914L10.4105 23.0489ZM10.6792 22.907L10.5272 21.9186L10.5131 21.9208L10.6651 22.9091L10.8171 23.8975L10.8312 23.8954L10.6792 22.907ZM10.6651 22.9091L10.216 22.0157L10.0156 22.1164L10.4647 23.0099L10.9138 23.9034L11.1143 23.8026L10.6651 22.9091ZM10.4647 23.0099L9.75759 22.3028L9.74676 22.3136L10.4539 23.0207L11.161 23.7278L11.1718 23.717L10.4647 23.0099ZM10.4539 23.0207L9.48909 22.7577L9.48584 22.7696L10.4506 23.0326L11.4154 23.2957L11.4186 23.2838L10.4539 23.0207ZM10.4506 23.0326L9.45149 23.0745L9.47099 23.5403L10.4701 23.4985L11.4692 23.4567L11.4497 22.9908L10.4506 23.0326ZM10.4701 23.4985L9.54705 23.8831L9.55247 23.8961L10.4755 23.5115L11.3986 23.1268L11.3932 23.1138L10.4701 23.4985ZM10.4755 23.5115L9.81705 24.2641L9.82571 24.2717L10.4842 23.5191L11.1427 22.7665L11.134 22.7589L10.4755 23.5115ZM10.4842 23.5191L10.0643 24.4266L10.282 24.5274L10.7019 23.6198L11.1219 22.7122L10.9041 22.6115L10.4842 23.5191ZM10.7019 23.6198L10.4475 24.5869C10.5741 24.6202 10.7662 24.645 10.986 24.5844C11.2198 24.5199 11.4026 24.3813 11.526 24.2209L10.7334 23.6111L9.94074 23.0014C10.0569 22.8504 10.2309 22.718 10.4542 22.6563C10.6636 22.5986 10.8435 22.623 10.9564 22.6527L10.7019 23.6198ZM10.7334 23.6111L11.6949 23.8858L11.6992 23.8707L10.7377 23.596L9.77617 23.3213L9.77184 23.3364L10.7334 23.6111ZM10.7377 23.596L11.7362 23.5407L11.6993 22.8755L10.7009 22.9308L9.70239 22.9861L9.73923 23.6513L10.7377 23.596ZM10.7009 22.9308L11.6644 22.6632C11.5886 22.3903 11.3648 22.0548 10.9369 21.9407L10.6792 22.907L10.4215 23.8732C10.25 23.8275 10.0843 23.7325 9.95283 23.5878C9.82776 23.4502 9.76691 23.3049 9.73735 23.1985L10.7009 22.9308ZM9.90461 22.9091L10.4229 22.0539C10.1977 21.9174 9.92857 21.8733 9.67175 21.9303L9.88868 22.9065L10.1056 23.8827C9.85969 23.9374 9.60201 23.8951 9.38633 23.7643L9.90461 22.9091ZM9.88868 22.9065L9.67175 21.9303C9.41487 21.9874 9.18984 22.1414 9.04365 22.3604L9.87536 22.9156L10.7071 23.4708C10.5671 23.6806 10.3516 23.828 10.1056 23.8827L9.88868 22.9065ZM9.87536 22.9156L8.95623 22.5217L8.94973 22.5369L9.86886 22.9308L10.788 23.3248L10.7945 23.3096L9.87536 22.9156ZM9.86886 22.9308L8.87039 22.8755L8.83356 23.5407L9.83203 23.596L10.8305 23.6513L10.8673 22.9861L9.86886 22.9308ZM9.83203 23.596L8.83357 23.6514C8.84201 23.8033 8.88708 24.001 9.02115 24.1902C9.15771 24.383 9.33739 24.4976 9.49932 24.5583L9.85045 23.622L10.2016 22.6856C10.352 22.742 10.5228 22.8501 10.6532 23.0342C10.7811 23.2148 10.8228 23.4017 10.8305 23.5405L9.83203 23.596ZM9.85045 23.622L9.98267 24.6132L9.99892 24.611L9.8667 23.6198L9.73448 22.6286L9.71823 22.6308L9.85045 23.622ZM9.8667 23.6198L10.2866 24.5274L10.5044 24.4266L10.0844 23.5191L9.66453 22.6115L9.44678 22.7122L9.8667 23.6198ZM10.0844 23.5191L10.7091 24.3L10.7199 24.2913L10.0953 23.5104L9.47062 22.7295L9.45979 22.7382L10.0844 23.5191ZM10.0953 23.5104L11.0351 23.8521L11.0394 23.8402L10.0996 23.4985L9.15982 23.1567L9.15548 23.1687L10.0953 23.5104ZM10.0996 23.4985L11.0988 23.538L11.1173 23.0721L10.118 23.0326L9.11881 22.9931L9.10039 23.459L10.0996 23.4985ZM10.118 23.0326L11.0882 22.7901L11.0849 22.7771L10.1148 23.0196L9.14465 23.2622L9.1479 23.2752L10.118 23.0326ZM10.1148 23.0196L10.8219 22.3125L10.8111 22.3017L10.1039 23.0088L9.39684 23.7159L9.40767 23.7268L10.1148 23.0196ZM10.1039 23.0088L10.5512 22.1144L10.3518 22.0147L9.90461 22.9091L9.4574 23.8036L9.65673 23.9032L10.1039 23.0088Z" fill="white" mask="url(#path-1-inside-1_766_165)"/>
<path d="M9.75 0.5C12.2033 0.5 14.5563 1.47427 16.291 3.20898C18.0257 4.9437 19 7.29675 19 9.75C19 12.8909 17.2868 15.4964 15.416 17.4092C14.4829 18.3526 13.4642 19.2082 12.374 19.9648L11.917 20.2764L11.709 20.415L11.3086 20.6699L10.9443 20.8916L10.5029 21.1475C10.2732 21.2779 10.0142 21.3477 9.75 21.3477C9.48553 21.3477 9.22597 21.2782 8.99609 21.1475L8.54688 20.8867L7.99414 20.5469L7.79688 20.418H7.7959L7.35645 20.125C6.1798 19.3286 5.08379 18.4187 4.08398 17.4092H4.08301C2.21231 15.4952 0.5 12.8905 0.5 9.75C0.5 7.29675 1.47427 4.9437 3.20898 3.20898C4.9437 1.47427 7.29675 0.5 9.75 0.5ZM9.75 1.66699C7.60617 1.66699 5.5501 2.51826 4.03418 4.03418C2.51826 5.5501 1.66699 7.60617 1.66699 9.75C1.66699 12.453 3.14527 14.7799 4.91895 16.5947L4.9209 16.5967C5.6848 17.37 6.51041 18.0806 7.38965 18.7197L7.39453 18.7227L7.89062 19.0752L7.89355 19.0781C8.05805 19.193 8.21781 19.3 8.37109 19.3994L8.37305 19.4014L8.7959 19.6719L8.80469 19.6777L9.17676 19.9043L9.18457 19.9092L9.49805 20.0918L9.75098 20.2402L10.0049 20.0908L10.4971 19.7998L10.5088 19.793L10.9062 19.543L10.9082 19.542C11.1262 19.4036 11.3587 19.2491 11.6045 19.0791L11.6094 19.0752L12.1055 18.7227L12.1104 18.7197C12.9896 18.0806 13.8152 17.37 14.5791 16.5967L14.5801 16.5957C16.3541 14.7817 17.833 12.4531 17.833 9.75C17.833 7.60617 16.9817 5.5501 15.4658 4.03418C13.9499 2.51826 11.8938 1.66699 9.75 1.66699ZM9.75 5.91699C10.7667 5.91699 11.742 6.32017 12.4609 7.03906C13.1798 7.75795 13.583 8.73334 13.583 9.75C13.583 10.7667 13.1798 11.742 12.4609 12.4609C11.742 13.1798 10.7667 13.583 9.75 13.583C8.73334 13.583 7.75795 13.1798 7.03906 12.4609C6.32017 11.742 5.91699 10.7667 5.91699 9.75C5.91699 8.73334 6.32017 7.75795 7.03906 7.03906C7.75795 6.32017 8.73334 5.91699 9.75 5.91699ZM9.75 7.08301C9.04276 7.08301 8.36435 7.36416 7.86426 7.86426C7.36416 8.36435 7.08301 9.04276 7.08301 9.75C7.08301 10.4572 7.36416 11.1356 7.86426 11.6357C8.36435 12.1358 9.04276 12.417 9.75 12.417C10.4572 12.417 11.1356 12.1358 11.6357 11.6357C12.1358 11.1356 12.417 10.4572 12.417 9.75C12.417 9.04276 12.1358 8.36435 11.6357 7.86426C11.1356 7.36416 10.4572 7.08301 9.75 7.08301Z" fill="white" stroke="white"/>
</svg>
