<svg width="26" height="26" viewBox="0 0 26 26" fill="none" xmlns="http://www.w3.org/2000/svg">
<path d="M9.29883 15.459C9.3526 15.5216 9.40193 15.6151 9.46094 15.7324V15.7334L9.51172 15.835L9.58203 15.9717H14.8896V16.5547H9.2334L9.08008 16.2617L8.98438 16.0801L8.78613 16.1387L8.5918 16.1973L8.43164 16.2451L8.41504 16.4111C8.41079 16.4527 8.40723 16.4987 8.40527 16.5479V16.5488C8.39756 16.7537 8.41306 16.9901 8.44531 17.2256C8.47825 17.4739 8.53149 17.7194 8.60449 17.959L8.65234 18.1143L8.81445 18.1338C9.14827 18.1739 9.45557 18.3354 9.67871 18.5869C9.90195 18.8386 10.0255 19.1636 10.0254 19.5L10.0186 19.6406C9.94832 20.3344 9.36375 20.875 8.6543 20.875L8.51855 20.8682C8.20449 20.8365 7.90952 20.697 7.68457 20.4717C7.42737 20.2139 7.28284 19.8642 7.2832 19.5L7.29395 19.3271C7.3155 19.1556 7.36942 18.9893 7.45312 18.8369C7.56475 18.6337 7.72609 18.4621 7.92188 18.3379L8.08496 18.2334L8.02539 18.0498L8.02344 18.043C7.95479 17.8014 7.90393 17.5546 7.87109 17.3057L7.87012 17.3047L7.84277 17.0654C7.83554 16.9855 7.83065 16.9054 7.82715 16.8252L7.81152 16.4639L7.47949 16.6064C6.79649 16.8987 6.15688 17.2533 5.61719 17.6475C4.55778 18.422 4.08114 19.1973 4.08105 19.8086V21.917H14.8896V22.5H3.5V19.8086C3.50008 18.9091 4.1725 17.9816 5.27441 17.1758C6.36455 16.3786 7.81868 15.7445 9.25 15.418L9.25195 15.417C9.25727 15.4195 9.27352 15.4296 9.29883 15.459ZM8.6543 18.7002C8.22513 18.7002 7.86328 19.0507 7.86328 19.5C7.86328 19.9502 8.226 20.2998 8.6543 20.2998C9.08342 20.2998 9.44434 19.9493 9.44434 19.5C9.44434 19.0499 9.08256 18.7002 8.6543 18.7002ZM12.9775 3.5C15.8235 3.5 18.1318 5.8129 18.1318 8.66699C18.1317 11.5209 15.8234 13.833 12.9775 13.833C10.1318 13.8329 7.82342 11.5209 7.82324 8.66699C7.82324 5.81297 10.1312 3.50014 12.9775 3.5ZM12.9775 4.08301C10.4508 4.08314 8.4043 6.13647 8.4043 8.66699C8.40447 11.1974 10.4515 13.2499 12.9775 13.25C15.5037 13.25 17.5506 11.1974 17.5508 8.66699C17.5508 6.13641 15.5038 4.08301 12.9775 4.08301Z" fill="white" stroke="white" stroke-width="0.5"/>
<path d="M20.4199 18.8564C20.4437 18.8577 20.4668 18.8638 20.4883 18.874C20.5099 18.8844 20.529 18.8992 20.5449 18.917H20.5459C20.562 18.9349 20.574 18.9559 20.582 18.9785C20.5901 19.0012 20.5941 19.0258 20.5928 19.0498C20.5914 19.0737 20.5855 19.0975 20.5752 19.1191C20.5649 19.1407 20.55 19.1598 20.5322 19.1758L20.5312 19.1768L19.1846 20.3926C19.1495 20.4241 19.1038 20.4411 19.0566 20.4404C19.033 20.44 19.0098 20.4346 18.9883 20.4258L18.9297 20.3877L18.3926 19.873L18.3516 19.8145C18.3419 19.7925 18.3365 19.7686 18.3359 19.7441C18.3354 19.7199 18.34 19.696 18.3486 19.6738L18.3867 19.6133C18.4032 19.596 18.4234 19.5819 18.4453 19.5723C18.4671 19.5627 18.4908 19.5581 18.5146 19.5576C18.5383 19.5571 18.5619 19.5608 18.584 19.5693C18.6062 19.578 18.6273 19.5909 18.6445 19.6074L18.8955 19.8486L19.0635 20.0098L19.2354 19.8535L20.2881 18.9033C20.3058 18.8873 20.3271 18.8742 20.3496 18.8662C20.3721 18.8583 20.3962 18.8552 20.4199 18.8564ZM20.4189 16.6084C20.4428 16.6097 20.4667 16.6157 20.4883 16.626L20.5449 16.6689C20.561 16.6868 20.574 16.7079 20.582 16.7305C20.5901 16.7532 20.5931 16.7777 20.5918 16.8018C20.5905 16.8257 20.5845 16.8494 20.5742 16.8711C20.5639 16.8927 20.55 16.9127 20.5322 16.9287H20.5312L19.1846 18.1436C19.1496 18.1752 19.1038 18.192 19.0566 18.1914C19.0094 18.1907 18.9638 18.1723 18.9297 18.1396L18.3926 17.625V17.624C18.3753 17.6074 18.3612 17.5874 18.3516 17.5654C18.3419 17.5435 18.3365 17.52 18.3359 17.4961C18.3354 17.4721 18.34 17.4482 18.3486 17.4258C18.3573 17.4034 18.3701 17.3826 18.3867 17.3652C18.4032 17.348 18.4234 17.3338 18.4453 17.3242C18.4672 17.3146 18.4908 17.3091 18.5146 17.3086C18.5384 17.3081 18.5619 17.3127 18.584 17.3213L18.6445 17.3594L18.8955 17.5996L19.0635 17.7598L19.2354 17.6045L20.2881 16.6553C20.3057 16.6394 20.3263 16.6271 20.3486 16.6191C20.371 16.6112 20.3952 16.6072 20.4189 16.6084Z" fill="white" stroke="white" stroke-width="0.5"/>
<path fill-rule="evenodd" clip-rule="evenodd" d="M21.2178 14.0832C21.2211 14.0102 21.2095 13.9373 21.1838 13.8688C21.1581 13.8004 21.1188 13.7379 21.0683 13.685C21.0178 13.6322 20.9571 13.5902 20.8899 13.5614C20.8226 13.5327 20.7503 13.5179 20.6772 13.5179C20.6041 13.5179 20.5318 13.5327 20.4645 13.5614C20.3973 13.5902 20.3366 13.6322 20.2861 13.685C20.2356 13.7379 20.1963 13.8004 20.1706 13.8688C20.1449 13.9373 20.1334 14.0102 20.1366 14.0832V14.2132H18.9206V14.0832C18.9246 14.0098 18.9136 13.9363 18.8883 13.8672C18.863 13.7982 18.8238 13.735 18.7732 13.6816C18.7227 13.6282 18.6617 13.5856 18.5942 13.5565C18.5266 13.5274 18.4538 13.5125 18.3803 13.5125C18.3067 13.5125 18.2339 13.5274 18.1664 13.5565C18.0988 13.5856 18.0379 13.6282 17.9873 13.6816C17.9367 13.735 17.8976 13.7982 17.8723 13.8672C17.8469 13.9363 17.8359 14.0098 17.84 14.0832V14.2132H17.2317C16.6721 14.2132 16.2188 14.6677 16.2188 15.2288V21.7343C16.2188 22.2949 16.6721 22.7499 17.2317 22.7499H21.7351C22.2952 22.7499 22.7485 22.2949 22.7485 21.7343V15.2288C22.7488 14.9599 22.6423 14.7018 22.4523 14.5113C22.2624 14.3209 22.0046 14.2136 21.7356 14.2132H21.2173L21.2178 14.0832ZM17.2994 21.6666V15.2966H21.6679V21.6666H17.2994Z" fill="white"/>
</svg>
