<svg width="80" height="80" viewBox="0 0 80 80" fill="none" xmlns="http://www.w3.org/2000/svg">
<path d="M60.0013 50H53.3346V56.6667H60.0013M60.0013 36.6667H53.3346V43.3333H60.0013M66.668 63.3333H40.0013V56.6667H46.668V50H40.0013V43.3333H46.668V36.6667H40.0013V30H66.668M33.3346 23.3333H26.668V16.6667H33.3346M33.3346 36.6667H26.668V30H33.3346M33.3346 50H26.668V43.3333H33.3346M33.3346 63.3333H26.668V56.6667H33.3346M20.0013 23.3333H13.3346V16.6667H20.0013M20.0013 36.6667H13.3346V30H20.0013M20.0013 50H13.3346V43.3333H20.0013M20.0013 63.3333H13.3346V56.6667H20.0013M40.0013 23.3333V10H6.66797V70H73.3346V23.3333H40.0013Z" fill="#E6E6E6"/>
</svg>
