<svg width="26" height="26" viewBox="0 0 26 26" fill="none" xmlns="http://www.w3.org/2000/svg">
<path d="M0.8125 25.1874H25.1875M19.4253 25.1874H6.57475L4.90425 17.6377C4.86756 17.474 4.86458 17.3046 4.8955 17.1398C4.92642 16.975 4.99058 16.8182 5.08408 16.6789C5.16889 16.5486 5.2843 16.4409 5.42026 16.3654C5.55621 16.2899 5.70859 16.2487 5.86408 16.2456H20.1359C20.2914 16.2487 20.4438 16.2899 20.5797 16.3654C20.7157 16.4409 20.8311 16.5486 20.9159 16.6789C21.0094 16.8182 21.0736 16.975 21.1045 17.1398C21.1354 17.3046 21.1324 17.474 21.0958 17.6377L19.4253 25.1874Z" stroke="#0F4C81" stroke-width="1.5" stroke-linecap="round" stroke-linejoin="round"/>
<path d="M9.14844 3.01172C9.84054 3.72941 10.6702 4.30027 11.5878 4.69022C12.5054 5.08016 13.4922 5.28119 14.4893 5.2813C15.5 5.2813 16.4999 5.07547 17.4284 4.6768M11.3747 20.3126C11.3747 20.7435 11.5459 21.1569 11.8506 21.4616C12.1554 21.7663 12.5687 21.9376 12.9997 21.9376C13.4307 21.9376 13.844 21.7663 14.1487 21.4616C14.4535 21.1569 14.6247 20.7435 14.6247 20.3126C14.6247 19.8816 14.4535 19.4683 14.1487 19.1635C13.844 18.8588 13.4307 18.6876 12.9997 18.6876C12.5687 18.6876 12.1554 18.8588 11.8506 19.1635C11.5459 19.4683 11.3747 19.8816 11.3747 20.3126Z" stroke="#0F4C81" stroke-width="1.5" stroke-linecap="round" stroke-linejoin="round"/>
<path d="M18.4154 13.8125C17.7368 13.0453 16.9031 12.431 15.9692 12.0103C15.0354 11.5895 14.0229 11.3719 12.9987 11.3719C11.9745 11.3719 10.962 11.5895 10.0281 12.0103C9.09435 12.431 8.26057 13.0453 7.58203 13.8125M8.52995 5.28125C8.52995 6.46644 9.00076 7.60308 9.83881 8.44113C10.6769 9.27919 11.8135 9.75 12.9987 9.75C14.1839 9.75 15.3205 9.27919 16.1586 8.44113C16.9966 7.60308 17.4674 6.46644 17.4674 5.28125C17.4674 4.09606 16.9966 2.95942 16.1586 2.12137C15.3205 1.28331 14.1839 0.8125 12.9987 0.8125C11.8135 0.8125 10.6769 1.28331 9.83881 2.12137C9.00076 2.95942 8.52995 4.09606 8.52995 5.28125Z" stroke="#0F4C81" stroke-width="1.5" stroke-linecap="round" stroke-linejoin="round"/>
</svg>
