<svg width="26" height="26" viewBox="0 0 26 26" fill="none" xmlns="http://www.w3.org/2000/svg">
<path d="M4.46973 2.66675C4.62444 2.66675 4.77342 2.72825 4.88281 2.83765C4.99203 2.94695 5.05362 3.09524 5.05371 3.24976V7.54175H9.34473C9.49944 7.54175 9.64842 7.60325 9.75781 7.71265C9.86703 7.82195 9.92862 7.97024 9.92871 8.12476C9.92871 8.27947 9.86721 8.42845 9.75781 8.53784C9.64842 8.64724 9.49944 8.70874 9.34473 8.70874H4.46973C4.31521 8.70865 4.16692 8.64706 4.05762 8.53784C3.94822 8.42845 3.88672 8.27947 3.88672 8.12476V3.24976C3.8868 3.09516 3.9483 2.94697 4.05762 2.83765C4.16694 2.72833 4.31513 2.66683 4.46973 2.66675Z" fill="#F2F2F2" stroke="#0F4C81"/>
<path d="M16.6543 17.2913H21.5293C21.6838 17.2913 21.8321 17.353 21.9414 17.4622C22.0508 17.5716 22.1123 17.7205 22.1123 17.8752V22.7502C22.1123 22.9049 22.0508 23.053 21.9414 23.1624C21.832 23.2717 21.6839 23.3333 21.5293 23.3333C21.3746 23.3332 21.2266 23.2717 21.1172 23.1624C21.0078 23.053 20.9463 22.9049 20.9463 22.7502V18.4583H16.6543C16.4996 18.4582 16.3516 18.3967 16.2422 18.2874C16.1328 18.178 16.0713 18.0299 16.0713 17.8752C16.0713 17.7205 16.1328 17.5716 16.2422 17.4622C16.3515 17.353 16.4998 17.2913 16.6543 17.2913ZM9.05176 3.45435C11.1526 2.58434 13.4824 2.43185 15.6787 3.02075C17.8748 3.6097 19.8155 4.90693 21.1992 6.71118C22.5829 8.5155 23.3319 10.7265 23.3311 13.0002C23.331 13.1549 23.2695 13.303 23.1602 13.4124C23.0508 13.5217 22.9027 13.5833 22.748 13.5833C22.5934 13.5832 22.4453 13.5217 22.3359 13.4124C22.2266 13.303 22.1651 13.1549 22.165 13.0002L22.1572 12.6223C22.0803 10.7391 21.4242 8.92166 20.2734 7.42114C19.0458 5.82043 17.3235 4.66996 15.375 4.14771C13.4267 3.62556 11.3605 3.76045 9.49707 4.53247C7.63362 5.30456 6.07651 6.6702 5.06836 8.41724C4.99084 8.55109 4.86333 8.64885 4.71387 8.68872C4.56446 8.72848 4.4053 8.70759 4.27148 8.63013C4.13763 8.55264 4.0399 8.42506 4 8.27563C3.96017 8.12632 3.98131 7.96706 4.05859 7.83325L4.05957 7.83228C5.19642 5.86321 6.95111 4.32435 9.05176 3.45435Z" fill="#F2F2F2" stroke="#0F4C81"/>
<path d="M3.25098 12.4167C3.40569 12.4167 3.55467 12.4783 3.66406 12.5876C3.77328 12.697 3.83487 12.8452 3.83496 12.9998C3.83409 15.017 4.49894 16.9781 5.72656 18.5789C6.95415 20.1795 8.67562 21.33 10.624 21.8523C12.5725 22.3745 14.6393 22.2397 16.5029 21.4675C18.3664 20.6954 19.9216 19.3289 20.9297 17.5818L20.9307 17.5828C20.969 17.5165 21.0202 17.4584 21.0811 17.4119C21.1419 17.3653 21.2112 17.331 21.2852 17.3113C21.3592 17.2915 21.4368 17.2865 21.5127 17.2966C21.5884 17.3067 21.6614 17.3317 21.7275 17.3699C21.7937 17.4082 21.8519 17.4596 21.8984 17.5203C21.9449 17.581 21.9793 17.6505 21.999 17.7244C22.0188 17.7984 22.0238 17.876 22.0137 17.9519C22.0036 18.0277 21.9787 18.1006 21.9404 18.1667C21.0316 19.7341 19.7279 21.0366 18.1592 21.9431C16.5908 22.8493 14.8123 23.3279 13.001 23.3328C10.2614 23.3298 7.63445 22.2406 5.69727 20.3035C3.76013 18.3662 2.67075 15.7394 2.66797 12.9998L2.67969 12.8855C2.70214 12.7735 2.7569 12.6696 2.83887 12.5876C2.94819 12.4783 3.09638 12.4168 3.25098 12.4167Z" fill="#F2F2F2" stroke="#0F4C81"/>
</svg>
