<svg width="26" height="26" viewBox="0 0 26 26" fill="none" xmlns="http://www.w3.org/2000/svg">
<path d="M4.46973 2.66675C4.62444 2.66675 4.77342 2.72825 4.88281 2.83765C4.99203 2.94695 5.05362 3.09524 5.05371 3.24976V7.54175H9.34473C9.49944 7.54175 9.64842 7.60325 9.75781 7.71265C9.86703 7.82195 9.92862 7.97024 9.92871 8.12476C9.92871 8.27947 9.86721 8.42845 9.75781 8.53784C9.64842 8.64724 9.49944 8.70874 9.34473 8.70874H4.46973C4.31521 8.70865 4.16692 8.64706 4.05762 8.53784C3.94822 8.42845 3.88672 8.27947 3.88672 8.12476V3.24976C3.8868 3.09516 3.9483 2.94697 4.05762 2.83765C4.16694 2.72833 4.31513 2.66683 4.46973 2.66675Z" fill="white" stroke="white"/>
<path d="M16.6543 17.2913H21.5293C21.6838 17.2913 21.8321 17.353 21.9414 17.4622C22.0508 17.5716 22.1123 17.7205 22.1123 17.8752V22.7502C22.1123 22.9049 22.0508 23.053 21.9414 23.1624C21.832 23.2717 21.6839 23.3333 21.5293 23.3333C21.3746 23.3332 21.2266 23.2717 21.1172 23.1624C21.0078 23.053 20.9463 22.9049 20.9463 22.7502V18.4583H16.6543C16.4996 18.4582 16.3516 18.3967 16.2422 18.2874C16.1328 18.178 16.0713 18.0299 16.0713 17.8752C16.0713 17.7205 16.1328 17.5716 16.2422 17.4622C16.3515 17.353 16.4998 17.2913 16.6543 17.2913ZM9.05176 3.45435C11.1526 2.58434 13.4824 2.43185 15.6787 3.02075C17.8748 3.6097 19.8155 4.90693 21.1992 6.71118C22.5829 8.5155 23.3319 10.7265 23.3311 13.0002C23.331 13.1549 23.2695 13.303 23.1602 13.4124C23.0508 13.5217 22.9027 13.5833 22.748 13.5833C22.5934 13.5832 22.4453 13.5217 22.3359 13.4124C22.2266 13.303 22.1651 13.1549 22.165 13.0002L22.1572 12.6223C22.0803 10.7391 21.4242 8.92166 20.2734 7.42114C19.0458 5.82043 17.3235 4.66996 15.375 4.14771C13.4267 3.62556 11.3605 3.76045 9.49707 4.53247C7.63362 5.30456 6.07651 6.6702 5.06836 8.41724C4.99084 8.55109 4.86333 8.64885 4.71387 8.68872C4.56446 8.72848 4.4053 8.70759 4.27148 8.63013C4.13763 8.55264 4.0399 8.42506 4 8.27563C3.96017 8.12632 3.98131 7.96706 4.05859 7.83325L4.05957 7.83228C5.19642 5.86321 6.95111 4.32435 9.05176 3.45435Z" fill="white" stroke="white"/>
<path d="M13.0013 23.8334C10.129 23.8305 7.37517 22.6883 5.34415 20.6572C3.31312 18.6262 2.17084 15.8724 2.16797 13.0001C2.16797 12.7128 2.28211 12.4372 2.48527 12.234C2.68843 12.0309 2.96398 11.9167 3.2513 11.9167C3.53862 11.9167 3.81417 12.0309 4.01733 12.234C4.2205 12.4372 4.33464 12.7128 4.33464 13.0001C4.33381 14.9072 4.96249 16.7614 6.12312 18.2747C7.28374 19.7881 8.91142 20.876 10.7536 21.3698C12.5957 21.8635 14.5493 21.7355 16.3112 21.0054C18.0731 20.2754 19.5449 18.9843 20.498 17.3323C20.5692 17.2092 20.6641 17.1013 20.777 17.0148C20.89 16.9284 21.0189 16.865 21.1564 16.8283C21.2938 16.7916 21.4372 16.7824 21.5782 16.8011C21.7192 16.8199 21.8552 16.8662 21.9783 16.9375C22.1015 17.0087 22.2094 17.1036 22.2958 17.2165C22.3823 17.3295 22.4457 17.4584 22.4824 17.5959C22.519 17.7333 22.5283 17.8767 22.5095 18.0177C22.4908 18.1587 22.4445 18.2947 22.3732 18.4178C21.4206 20.0608 20.054 21.4254 18.4096 22.3757C16.7652 23.3259 14.9005 23.8285 13.0013 23.8334Z" fill="white"/>
</svg>
