<svg width="26" height="26" viewBox="0 0 26 26" fill="none" xmlns="http://www.w3.org/2000/svg">
<path d="M25.25 6.96484V7.375H23.625V25.25H21.875V10.625H4.125V25.25H2.375V7.375H0.75V6.96191L12.9053 0.837891L25.25 6.96484ZM5.75 10.5H10.5V7.375H5.75V10.5ZM10.625 10.5H15.375V7.375H10.625V10.5ZM15.5 10.5H20.25V7.375H15.5V10.5Z" fill="#F2F2F2" stroke="#0F4C81" stroke-width="1.5"/>
<path d="M13.875 20.25V21.875H17V20.25H17.125V23.625H13.75V20.25H13.875ZM7.375 20.25V21.875H10.5V20.25H10.625V23.625H7.25V20.25H7.375ZM7.375 13.75V15.375H10.5V13.75H10.625V17.125H7.25V13.75H7.375Z" fill="#F2F2F2" stroke="#0F4C81" stroke-width="1.5"/>
</svg>
